<svg width="512" height="512" viewBox="0 0 512 512" xmlns="http://www.w3.org/2000/svg">
<defs><linearGradient id="g" x1="0" y1="0" x2="1" y2="1"><stop offset="0" stop-color="#FFB154"/><stop offset="1" stop-color="#FF8A5B"/></linearGradient><radialGradient id="gl"><stop offset="0" stop-color="#FFD45E" stop-opacity="0.34"/><stop offset="0.42" stop-color="#FF8A5B" stop-opacity="0.12"/><stop offset="0.7" stop-color="#FF8A5B" stop-opacity="0"/></radialGradient></defs>
<rect width="512" height="512" rx="115" fill="#2E2640"/>
<circle cx="256" cy="250" r="150" fill="url(#gl)"/>
<g transform="translate(256,272) scale(1.95)"><path d="M0,-86 C26,-70 60,-46 62,-6 C64,40 36,66 0,66 C-36,66 -64,40 -62,-6 C-60,-46 -26,-70 0,-86 Z" fill="url(#g)"/><ellipse cx="-34" cy="6" rx="9" ry="6" fill="#FF5E52" opacity="0.30"/><ellipse cx="34" cy="6" rx="9" ry="6" fill="#FF5E52" opacity="0.30"/><ellipse cx="-22" cy="-14" rx="11" ry="15" fill="#2E2640"/><circle cx="-26" cy="-20" r="4" fill="#FFF" opacity="0.95"/><ellipse cx="22" cy="-14" rx="11" ry="15" fill="#2E2640"/><circle cx="18" cy="-20" r="4" fill="#FFF" opacity="0.95"/><path d="M-17,22 Q0,37 17,22" stroke="#2E2640" stroke-width="4" fill="none" stroke-linecap="round"/></g></svg>